<!DOCTYPE svg PUBLIC "-//W3C//DTD SVG 1.1//EN" "http://www.w3.org/Graphics/SVG/1.1/DTD/svg11.dtd">
<svg xmlns="http://www.w3.org/2000/svg" viewBox="0 0 1120 1960">
<path fill="#040404" d="M646.25 74.744c-6.118.25-8.25.688-8.25 1.695 0 .948-2.115 1.57-7 2.061-4.995.502-7 1.104-7 2.101 0 .932-1.168 1.399-3.5 1.399-1.925 0-3.5.45-3.5 1s-1.125 1-2.5 1-2.5.45-2.5 1-.9 1-2 1c-1.111 0-2 .667-2 1.5 0 .825-.675 1.5-1.5 1.5s-1.5.45-1.5 1-.9 1-2 1c-1.111 0-2 .667-2 1.5 0 .825-.863 1.5-1.918 1.5-2.912 0-5.082 1.067-5.082 2.499 0 .706-1.125 1.567-2.5 1.912s-2.5 1.128-2.5 1.741c0 1.513-3.962 4.848-5.76 4.848-.882 0-1.227.591-.878 1.5.35.914.001 1.5-.893 1.5-.808 0-1.469.9-1.469 2s-.441 2-.981 2c-.539 0-1.263 1.125-1.608 2.5-.345 1.375-1.286 2.5-2.091 2.5-2.66 0-4.273 2.746-4.938 8.409-.362 3.075-1.045 5.591-1.52 5.591-.474 0-.862 1.575-.862 3.5s-.45 3.5-1 3.5c-.571 0-1 3-1 7s.429 7 1 7c.55 0 1 1.988 1 4.417s.415 4.566.922 4.75c.508.183 1.218 2.358 1.578 4.833.36 2.475 1.07 4.65 1.578 4.833.507.184.922.971.922 1.75 0 .78.85 1.417 1.889 1.417 1.361 0 2.069.962 2.534 3.444.41 2.182 1.366 3.672 2.612 4.067 1.081.343 1.965 1.076 1.965 1.628 0 .552.563 1.592 1.25 2.31.688.718 1.912 2.261 2.721 3.428.809 1.168 2.313 2.123 3.343 2.123 1.032 0 2.108.898 2.396 2 .29 1.107 1.364 2 2.407 2 1.035 0 1.883.45 1.883 1s1.026 1 2.279 1c1.254 0 2.928.9 3.721 2 .793 1.1 2.017 2 2.721 2 .703 0 1.279.647 1.279 1.439 0 .938 1.565 1.673 4.5 2.113 2.475.371 4.5 1.074 4.5 1.562 0 .487.9.886 2 .886s2 .617 2 1.371c0 .933 1.915 1.587 6 2.049 4.051.459 6 1.12 6 2.036 0 .869 1.795 1.603 5 2.044 3.303.454 5 1.165 5 2.094 0 1 1.3 1.406 4.5 1.406 2.475 0 4.5.404 4.5.899 0 .494 3.15 1.214 7 1.601 4.621.464 7 1.134 7 1.972 0 .862 2.568 1.494 8 1.968 5.949.519 8 1.064 8 2.129 0 .969 1.13 1.431 3.5 1.431 1.925 0 3.5.45 3.5 1s1.8 1 4 1 4 .45 4 1 1.35 1 3 1 3 .404 3 .899c0 .494 3.15 1.214 7 1.601 4.995.502 7 1.104 7 2.101 0 .77.675 1.399 1.5 1.399s1.5.45 1.5 1 .9 1 2 1 2 .45 2 1 .932 1 2.071 1c2.19 0 4.929 2.158 4.929 3.883 0 .565 1.575 1.322 3.5 1.683s3.5 1.036 3.5 1.5c0 .464 1.125 1.968 2.5 3.343s2.5 2.933 2.5 3.462c0 .529.458 1.115 1.018 1.302.56.186 1.298 2.699 1.64 5.583.341 2.884 1.008 5.244 1.481 5.244.474 0 .861 4.275.861 9.5s-.4 9.5-.889 9.5c-.488 0-1.184 1.575-1.545 3.5s-1.086 3.5-1.611 3.5c-.525 0-.955.9-.955 2s-.45 2-1 2-1 .627-1 1.393c0 1.529-2.101 2.607-5.082 2.607-1.055 0-1.918.445-1.918.989 0 1.756-3.392 5.011-5.222 5.011-.978 0-1.778.675-1.778 1.5s-.675 1.5-1.5 1.5-1.5.45-1.5 1-1.35 1-3 1-3 .45-3 1-1.8 1-4 1-4 .45-4 1-2.025 1-4.5 1c-3.333 0-4.5.389-4.5 1.5 0 1.288-3.115 1.5-22.031 1.5-18.661 0-22.12-.229-22.607-1.5-.391-1.018-1.987-1.5-4.969-1.5-2.416 0-4.393-.45-4.393-1s-2.025-1-4.5-1-4.5-.45-4.5-1-1.125-1-2.5-1-2.5-.45-2.5-1-.9-1-2-1c-1.104 0-2-.667-2-1.488 0-.963-1.412-1.714-4-2.128-2.2-.352-4-1.032-4-1.512s-.9-.872-2-.872-2-.627-2-1.393-.675-1.652-1.5-1.969c-.825-.316-1.5-1.264-1.5-2.107 0-.842-.689-1.531-1.531-1.531-.843 0-1.822-.788-2.176-1.75-.354-.962-1.69-2.741-2.968-3.952-1.279-1.211-2.325-2.899-2.325-3.75 0-.852-.45-1.548-1-1.548s-1-1.125-1-2.5-.45-2.5-1-2.5c-.556 0-1-2.667-1-6 0-4.667-.333-6-1.5-6-.825 0-1.5-.45-1.5-1 0-.632-7.167-1-19.5-1H557v4.5c0 2.475.45 4.5 1 4.5s1 2.25 1 5 .45 5 1 5 1 .932 1 2.071c0 1.14.675 2.747 1.5 3.572.825.825 1.5 2.368 1.5 3.428 0 1.061.45 1.929 1 1.929s1 .9 1 2 .45 2 1 2 1 .511 1 1.135c0 .625 1.125 2.178 2.5 3.453 1.375 1.274 2.5 2.788 2.5 3.364 0 .577.9 1.048 2 1.048s2 .381 2 .847c0 1.523 3.699 5.153 5.251 5.153.834 0 1.751.9 2.039 2 .288 1.102 1.364 2 2.396 2 1.03 0 2.521.9 3.314 2 .793 1.1 2.017 2 2.721 2 .703 0 1.279.45 1.279 1s1.125 1 2.5 1c1.467 0 2.5.574 2.5 1.389 0 .795 1.495 1.669 3.5 2.045 1.931.362 3.5 1.257 3.5 1.996 0 .874 1.913 1.579 5.5 2.027 3.025.378 5.5 1.105 5.5 1.615s1.575.928 3.5.928c2.37 0 3.5.462 3.5 1.431 0 1.065 2.051 1.61 8 2.129 5.24.457 8 1.119 8 1.916 0 .847 3.429 1.416 11.25 1.867 24.438 1.408 64.841.353 64.45-1.684-.22-1.144.194-1.249 8.55-2.169 4.02-.443 5.75-1.064 5.75-2.062 0-1.026 1.267-1.428 4.5-1.428 2.475 0 4.5-.399 4.5-.886 0-.488 2.025-1.191 4.5-1.562 2.857-.428 4.5-1.183 4.5-2.068 0-.801 1.489-1.673 3.5-2.05 2.005-.376 3.5-1.25 3.5-2.045 0-.764.833-1.389 1.852-1.389 1.018 0 3.214-1.303 4.88-2.895s3.983-3.197 5.149-3.567c1.165-.37 2.119-1.111 2.119-1.648 0-1.025 1.041-2.426 4.75-6.393 1.237-1.323 2.25-2.909 2.25-3.523 0-1.422 2.523-3.974 3.929-3.974.589 0 1.071-.9 1.071-2s.45-2 1-2 1-.863 1-1.917.563-2.104 1.25-2.333c.947-.316 1.25-5.472 1.25-21.25 0-15.778-.303-20.934-1.25-21.25-.687-.229-1.25-1.279-1.25-2.333 0-1.055-.45-1.917-1-1.917s-1-.675-1-1.5-.675-1.5-1.5-1.5c-.857 0-1.5-.9-1.5-2.099 0-1.154-1.35-3.36-3-4.901s-3-3.125-3-3.518c0-1.08-7.855-8.482-9.001-8.482-.55 0-.999-.627-.999-1.393 0-1.529-2.101-2.607-5.082-2.607-1.055 0-1.918-.666-1.918-1.481 0-.814-1.125-1.763-2.5-2.108-1.375-.345-2.5-1.029-2.5-1.519 0-.491-.9-.892-2-.892s-2-.624-2-1.386c0-.877-1.655-1.635-4.5-2.062-2.768-.415-4.5-1.192-4.5-2.019 0-.856-1.819-1.596-5-2.033-3.303-.454-5-1.165-5-2.094 0-.833-1.019-1.406-2.5-1.406-1.375 0-2.5-.404-2.5-.899 0-.494-3.15-1.214-7-1.601-4.995-.502-7-1.104-7-2.101 0-.932-1.168-1.399-3.5-1.399-1.925 0-3.5-.45-3.5-1s-1.575-1-3.5-1-3.5-.45-3.5-1-2.025-1-4.5-1-4.5-.45-4.5-1-1.575-1-3.5-1c-2.37 0-3.5-.462-3.5-1.431 0-1.065-2.051-1.61-8-2.129-4.4-.384-8-1.09-8-1.569 0-.479-1.575-.871-3.5-.871s-3.5-.45-3.5-1-1.125-1-2.5-1-2.5-.45-2.5-1-1.125-1-2.5-1c-1.556 0-2.5-.567-2.5-1.5 0-.912-.931-1.5-2.375-1.5-4.505 0-8.625-1.254-8.625-2.625 0-.756-.863-1.375-1.918-1.375-2.981 0-5.082-1.078-5.082-2.607 0-.766-.675-1.393-1.5-1.393s-1.5-.482-1.5-1.071c0-1.385-2.544-3.929-3.929-3.929-.589 0-1.071-.45-1.071-1s-.707-1-1.571-1c-1.992 0-4.429-2.398-4.429-4.357 0-.825-.652-2.152-1.449-2.95-.798-.797-1.606-2.612-1.796-4.033-.19-1.422-.663-2.901-1.051-3.289-.387-.387-.704-1.717-.704-2.954 0-1.238-.562-2.457-1.25-2.709-1-.366-1-.723 0-1.783.688-.729 1.25-3.485 1.25-6.125s.45-4.8 1-4.8 1-1.302 1-2.893c0-1.649.645-3.141 1.5-3.469.825-.316 1.5-1.714 1.5-3.107 0-1.392.45-2.531 1-2.531s1-.603 1-1.339c0-1.522 4.119-3.661 7.047-3.661 1.074 0 1.953-.482 1.953-1.071 0-1.385 2.544-3.929 3.929-3.929.589 0 1.071-.647 1.071-1.439 0-.938 1.565-1.673 4.5-2.113 2.613-.392 4.5-1.207 4.5-1.943 0-.87 2.674-1.491 8.5-1.976 4.675-.39 8.5-1.118 8.5-1.619 0-.514 8.05-.91 18.5-.91 11.667 0 18.5.369 18.5 1 0 .55 1.462 1.004 3.25 1.009 7.176.019 13.75 1.277 13.75 2.63 0 .766 1.039 1.361 2.375 1.361 4.505 0 8.625 1.254 8.625 2.625 0 .756.675 1.375 1.5 1.375s1.5.45 1.5 1 .9 1 2 1 2 .599 2 1.331 1.125 1.933 2.5 2.669 2.5 1.937 2.5 2.669.891 1.331 1.981 1.331c1.279 0 2.203.886 2.608 2.5.345 1.375 1.029 2.5 1.519 2.5.491 0 .892.852.892 1.893s.704 2.163 1.563 2.493c.86.33 1.307 1.015.994 1.522-.313.506-.039 1.098.609 1.314.665.222 1.374 3.089 1.626 6.585.247 3.406.844 6.193 1.328 6.193.484 0 .88 1.125.88 2.5v2.5h40.104l-.696-8.75c-.383-4.812-1.138-9.036-1.677-9.386-.54-.35-.981-1.805-.981-3.232 0-1.428-.394-2.352-.875-2.055-.481.298-.875.064-.875-.518 0-.582-.675-1.059-1.5-1.059-.933 0-1.5-.944-1.5-2.5 0-1.375-.45-2.5-1-2.5s-1-.87-1-1.933c0-1.063-.9-2.218-1.999-2.567-1.38-.438-2.193-1.851-2.628-4.567-.472-2.953-1.095-3.933-2.501-3.933-1.03 0-1.872-.659-1.872-1.465 0-.805-1.003-2.002-2.229-2.658-2.794-1.495-4.771-3.442-4.771-4.699 0-1.146-2.408-2.178-5.082-2.178-1.055 0-1.918-.666-1.918-1.481 0-.814-1.125-1.763-2.5-2.108-1.375-.345-2.5-1.254-2.5-2.019 0-.766-.9-1.392-2-1.392s-2-.45-2-1-.675-1-1.5-1-1.5-.675-1.5-1.5c0-.933-.944-1.5-2.5-1.5-1.375 0-2.5-.45-2.5-1s-1.35-1-3-1-3-.45-3-1-1.125-1-2.5-1c-1.442 0-2.5-.576-2.5-1.361 0-1.353-6.574-2.611-13.75-2.63-2.056-.006-3.25-.504-3.25-1.358 0-2.32-29.404-3.228-61.75-1.907m284.5-.074c-5.046.315-6.75.789-6.75 1.876 0 .972-1.077 1.457-3.25 1.463-7.176.019-13.75 1.277-13.75 2.63 0 .785-1.058 1.361-2.5 1.361-1.375 0-2.5.45-2.5 1s-1.35 1-3 1-3 .45-3 1-1.125 1-2.5 1c-1.556 0-2.5.567-2.5 1.5 0 .825-.675 1.5-1.5 1.5s-1.5.45-1.5 1-.9 1-2 1-2 .655-2 1.455c0 .87-1.405 1.718-3.5 2.111-1.925.361-3.5 1.233-3.5 1.938 0 .705-.675 1.541-1.5 1.858-.825.316-1.5 1.264-1.5 2.107 0 .966-.922 1.531-2.5 1.531-2.444 0-6.5 3.078-6.5 4.933 0 .513-.855 1.204-1.901 1.535-1.045.332-2.178 1.713-2.519 3.068-.34 1.355-1.06 2.464-1.599 2.464-.54 0-.981.645-.981 1.433s-.9 1.718-2 2.067c-1.1.349-2 1.472-2 2.496s-.675 2.536-1.5 3.361c-.825.825-1.5 1.982-1.5 2.572 0 .589-.45 1.071-1 1.071s-1 .9-1 2c0 1.111-.667 2-1.5 2-.825 0-1.5.675-1.5 1.5s-.45 1.5-1 1.5-1 .9-1 2-.45 2-1 2-1 .9-1 2-.392 2-.871 2-1.17 2.25-1.535 5c-.364 2.75-1.097 5-1.628 5-.531 0-.966 1.575-.966 3.5s-.45 3.5-1 3.5-1 2.25-1 5-.45 5-1 5c-.65 0-1 13.667-1 39s.35 39 1 39c.55 0 1 2.25 1 5s.45 5 1 5 1 1.575 1 3.5.392 3.5.871 3.5 1.17 2.25 1.535 5c.364 2.75 1.097 5 1.628 5 .531 0 .966.9.966 2s.45 2 1 2 1 .9 1 2 .45 2 1 2 1 1.125 1 2.5c0 1.556.567 2.5 1.5 2.5.825 0 1.5.87 1.5 1.933 0 1.063.9 2.218 2 2.567 1.287.409 2 1.513 2 3.099 0 1.355.675 2.723 1.5 3.039.825.317 1.5 1.173 1.5 1.902 0 .729.855 1.597 1.901 1.928 1.045.332 2.171 1.683 2.502 3.001.331 1.319 1.501 2.683 2.599 3.032 1.099.348 1.998 1.278 1.998 2.066 0 .788.42 1.433.933 1.433.513 0 1.218.9 1.567 2s1.504 2 2.567 2c1.063 0 1.933.45 1.933 1s.675 1 1.5 1 1.5.686 1.5 1.525c0 .891 1.235 1.772 2.97 2.119 1.674.335 3.231 1.415 3.568 2.475.328 1.035 1.466 1.881 2.529 1.881s1.933.45 1.933 1 .675 1 1.5 1 1.5.675 1.5 1.5c0 .885.923 1.506 2.25 1.514 3.765.023 6.75 1.146 6.75 2.541 0 .801 1.776 1.589 4.5 1.997 2.475.371 4.5 1.074 4.5 1.562 0 .487 1.125.886 2.5.886 1.471 0 2.5.574 2.5 1.394 0 1.036 2.312 1.577 9 2.106 6.12.484 9 1.11 9 1.954 0 1.549 14.693 2.546 37.5 2.546 23.565 0 37.5-.985 37.5-2.652 0-.918 1.356-1.351 4.25-1.357 8.085-.016 14.75-1.205 14.75-2.63 0-.946 1.371-1.361 4.5-1.361 2.475 0 4.5-.408 4.5-.906 0-.499 2.25-1.216 5-1.594 3.072-.422 5-1.187 5-1.983 0-.712 1.575-1.59 3.5-1.951 2.095-.393 3.5-1.241 3.5-2.111 0-.885.979-1.455 2.5-1.455 1.375 0 2.5-.45 2.5-1s.735-1 1.633-1 2.36-.836 3.25-1.857c.889-1.021 2.63-2.177 3.867-2.567 1.237-.391 2.25-1.355 2.25-2.143 0-.788.42-1.433.933-1.433.513 0 1.192-.818 1.509-1.817.317-.999 2.147-2.433 4.067-3.187l3.491-1.369V211H963v27h35.071c29.062 0 35.317.245 36.5 1.429 2.186 2.185 2.118 61.093-.071 61.933-.825.316-1.5 1.264-1.5 2.107 0 1.034-.973 1.531-3 1.531-1.65 0-3 .43-3 .955 0 .525-1.575 1.25-3.5 1.611-2.005.376-3.5 1.25-3.5 2.045 0 .764-.675 1.389-1.5 1.389s-1.5.45-1.5 1-1.35 1-3 1-3 .45-3 1-2.25 1-5 1-5 .45-5 1-2.25 1-5 1c-3.778 0-5 .367-5 1.5 0 1.29-3.222 1.5-23 1.5s-23-.21-23-1.5c0-1.133-1.222-1.5-5-1.5-2.75 0-5-.45-5-1s-1.125-1-2.5-1-2.5-.45-2.5-1-1.35-1-3-1-3-.45-3-1-1.125-1-2.5-1c-1.47 0-2.5-.574-2.5-1.393 0-1.529-2.101-2.607-5.082-2.607-1.055 0-1.918-.45-1.918-1s-.675-1-1.5-1-1.5-.686-1.5-1.525c0-.894-1.24-1.773-3-2.125-1.65-.33-3-1.233-3-2.006 0-.774-.675-1.666-1.5-1.982-.825-.317-1.5-1.096-1.5-1.732 0-.635-1.125-2-2.5-3.033-1.375-1.032-2.5-2.433-2.5-3.112 0-.679-1.31-1.497-2.911-1.817-2.291-.458-3.065-1.284-3.634-3.874-.398-1.811-1.563-4.02-2.589-4.91-1.026-.89-1.866-2.353-1.866-3.251 0-.898-.422-1.633-.939-1.633-.516 0-1.242-2.025-1.613-4.5s-1.074-4.5-1.562-4.5c-.487 0-.886-1.575-.886-3.5s-.45-3.5-1-3.5-1-1.312-1-2.917c0-1.604-.562-3.104-1.25-3.333-.975-.326-1.25-10.173-1.25-44.751 0-34.577.275-44.424 1.25-44.749.688-.229 1.25-1.504 1.25-2.833 0-1.329.45-2.417 1-2.417s1-1.35 1-3 .422-3 .939-3c.516 0 1.242-2.025 1.613-4.5s1.074-4.5 1.562-4.5c.487 0 .886-.87.886-1.933 0-1.063.9-2.218 2-2.567 1.287-.409 2-1.513 2-3.099 0-1.355.675-2.723 1.5-3.039.825-.317 1.5-1.203 1.5-1.969s.914-1.393 2.031-1.393c1.118 0 2.324-.787 2.681-1.75.357-.963 1.468-2.478 2.469-3.367 1-.89 1.819-2.092 1.819-2.673 0-.58 1.575-1.575 3.5-2.21s3.5-1.795 3.5-2.578c0-.782.675-1.422 1.5-1.422s1.5-.45 1.5-1 .9-1 2-1 2-.633 2-1.406c0-.929 1.697-1.64 5-2.094 3.007-.414 5-1.193 5-1.955 0-1.289 6.913-2.519 14.25-2.536 2.063-.005 3.75-.459 3.75-1.009 0-.629 6.5-1 17.5-1s17.5.371 17.5 1c0 .55 1.462 1.004 3.25 1.009 6.826.018 13.75 1.286 13.75 2.517 0 .711 1.933 1.537 4.5 1.922 2.935.44 4.5 1.175 4.5 2.113 0 .868.992 1.439 2.5 1.439 1.375 0 2.5.45 2.5 1s.848 1 1.883 1c1.045 0 2.117.894 2.408 2.007.325 1.24 1.676 2.236 3.536 2.608 2.076.416 3.197 1.345 3.611 2.994.33 1.315 1.042 2.391 1.581 2.391.54 0 .981.9.981 2s.45 2 1 2 1 .627 1 1.393.675 1.652 1.5 1.969c.825.316 1.5 1.714 1.5 3.107 0 1.864.527 2.531 2 2.531 1.304 0 2 .667 2 1.917 0 1.054.458 2.069 1.018 2.256.56.186 1.298 2.699 1.64 5.583l.621 5.244h20.86c20.194 0 20.861-.064 20.861-2 0-1.111-.667-2-1.5-2-1 0-1.5-1-1.5-3 0-1.65-.45-3-1-3s-1-1.125-1-2.5-.391-2.5-.868-2.5c-.478 0-1.124-1.903-1.436-4.228-.312-2.326-1.046-4.389-1.631-4.584-.586-.195-1.065-1.217-1.065-2.271 0-1.055-.45-1.917-1-1.917s-1-1.049-1-2.331c0-1.463-.931-2.829-2.5-3.669-1.569-.84-2.5-2.206-2.5-3.669 0-1.282-.45-2.331-1-2.331s-1-.627-1-1.393-.675-1.652-1.5-1.969c-.825-.316-1.5-1.214-1.5-1.995 0-.834-1.458-1.694-3.528-2.082-1.94-.364-3.264-1.089-2.941-1.612.323-.522-.115-.949-.972-.949s-1.559-.645-1.559-1.433-.9-1.718-2-2.067c-1.1-.349-2-1.259-2-2.022 0-.794-1.497-1.668-3.5-2.044-2.005-.376-3.5-1.25-3.5-2.045 0-.764-.675-1.389-1.5-1.389s-1.5-.45-1.5-1-1.125-1-2.5-1c-1.556 0-2.5-.567-2.5-1.5 0-.833-.889-1.5-2-1.5-1.1 0-2-.45-2-1s-.675-1-1.5-1-1.5-.45-1.5-1-1.364-1-3.031-1c-1.693 0-3.272-.626-3.575-1.416-.377-.983-3.129-1.632-8.986-2.12-5.883-.49-8.696-1.156-9.278-2.197-.853-1.524-46.232-2.667-63.38-1.597M40 209.5V341h201v-26H82.133l-.317-2.75c-.174-1.512-.194-22.887-.046-47.5l.27-44.75h68.011c63.833 0 68.056-.108 68.73-1.75.396-.963.719-7.375.719-14.25v-12.5l-69-.256-69-.257.271-42.993.271-42.994H240V78H40v131.5m255 0V341h41V240h39c25.333 0 39-.35 39-1 0-.622 5.667-1 15-1 12.093 0 15-.268 15-1.381 0-1.028 2.43-1.563 9.5-2.093 5.225-.392 9.5-1.121 9.5-1.619 0-.499 1.575-.907 3.5-.907s3.5-.45 3.5-1 1.125-1 2.5-1 2.5-.45 2.5-1 .9-1 2-1 2-.623 2-1.383c0-1.449 2.932-2.58 6.75-2.603 1.296-.008 2.25-.631 2.25-1.469 0-.871 1.407-1.718 3.509-2.113 2.524-.473 3.67-1.298 4.081-2.936.379-1.51 1.556-2.475 3.491-2.862 1.725-.345 2.919-1.221 2.919-2.14 0-.856.675-1.816 1.5-2.132.825-.317 1.5-1.203 1.5-1.969s.675-1.393 1.5-1.393c2.153 0 5.5-3.651 5.5-6 0-1.1.45-2 1-2s1-.9 1-2 .445-2 .988-2c.544 0 1.276-1.8 1.628-4 .352-2.2 1.032-4 1.512-4s.872-1.35.872-3 .45-3 1-3 1-1.575 1-3.5.404-3.5.899-3.5c.494 0 .963-6.075 1.043-13.5.094-8.798-.219-13.5-.899-13.5-.574 0-1.043-2.025-1.043-4.5s-.45-4.5-1-4.5-1-1.35-1-3-.41-3-.912-3-1.203-1.719-1.558-3.821c-.355-2.101-1.519-4.451-2.588-5.221-1.068-.77-1.942-2.152-1.942-3.072 0-.92-.675-1.931-1.5-2.248-.825-.316-1.5-1.264-1.5-2.107 0-.842-.707-1.531-1.571-1.531-1.822 0-3.756-1.748-4.704-4.25-.364-.963-1.126-1.75-1.694-1.75-.567 0-1.031-.645-1.031-1.433s-.9-1.718-2-2.067c-1.1-.349-2-1.054-2-1.567 0-.513-.675-.933-1.5-.933s-1.5-.675-1.5-1.5c0-.856-.899-1.5-2.094-1.5-1.252 0-2.303-.803-2.616-2-.315-1.205-1.371-2.005-2.657-2.014-3.71-.023-6.633-1.17-6.633-2.603 0-.76-.9-1.383-2-1.383s-2-.45-2-1-1.125-1-2.5-1c-1.556 0-2.5-.567-2.5-1.5s-.944-1.5-2.5-1.5c-1.375 0-2.5-.45-2.5-1s-2.025-1-4.5-1-4.5-.45-4.5-1-1.575-1-3.5-1c-2.267 0-3.5-.474-3.5-1.346C449 78.522 431.445 78 359.843 78H295v131.5m41-51.5v53l46.75-.006c51.31-.007 63.25-.505 63.25-2.642 0-.763 1.053-1.352 2.417-1.352 1.329 0 2.576-.479 2.771-1.065.195-.585 2.258-1.319 4.584-1.631 2.634-.354 4.228-1.083 4.228-1.936 0-.752.675-1.368 1.5-1.368s1.5-.45 1.5-1 .87-1 1.933-1c1.063 0 2.218-.9 2.567-2 .349-1.1 1.054-2 1.567-2 .513 0 .933-.645.933-1.433s.918-1.724 2.041-2.08c1.212-.385 2.278-1.834 2.625-3.567.321-1.606.978-2.92 1.459-2.92.481 0 .875-.675.875-1.5s.45-1.5 1-1.5 1-1.088 1-2.417c0-1.329.534-2.594 1.187-2.812 1.739-.58 1.8-30.938.063-31.519-.687-.23-1.25-1.956-1.25-3.835 0-1.88-.45-3.417-1-3.417s-1-.707-1-1.571c0-.865-.675-2.247-1.5-3.072-.825-.825-1.5-2.311-1.5-3.303 0-1.204-.997-2.003-3-2.404-2.383-.477-3-1.119-3-3.125 0-1.578-.563-2.525-1.5-2.525-.825 0-1.5-.645-1.5-1.433 0-1.522-1.252-2.062-7.25-3.125-2.214-.392-3.75-1.233-3.75-2.053 0-.764-.675-1.389-1.5-1.389s-1.5-.45-1.5-1-1.125-1-2.5-1c-1.493 0-2.5-.572-2.5-1.42 0-1.084-2.362-1.587-10-2.129-7.46-.529-10-1.057-10-2.08 0-1.141-7.546-1.371-45-1.371h-45v53m143.75 236.771c-7.756.24-9.75.601-9.75 1.765 0 1.163-1.644 1.464-8 1.464-4.667 0-8 .417-8 1 0 .556-2.667 1-6 1-4.667 0-6 .333-6 1.5 0 1.065-1.086 1.502-3.75 1.507-8.327.016-17.25 1.306-17.25 2.494 0 .795-2.832 1.446-8.25 1.895-4.538.377-8.4 1.116-8.583 1.644-.184.528-1.871.96-3.75.96-2.371 0-3.417.459-3.417 1.5 0 1.023-1.033 1.503-3.25 1.511-5.677.019-10.75 1.208-10.75 2.518 0 .836-2.384 1.507-7 1.971-4.995.502-7 1.104-7 2.101 0 .826-1.025 1.399-2.5 1.399-1.375 0-2.5.398-2.5.885 0 .486-2.475 1.194-5.5 1.572-3.491.436-5.5 1.161-5.5 1.986 0 .845-2.095 1.536-6 1.977-4.263.483-6 1.099-6 2.13 0 .797-.9 1.45-2 1.45s-2 .45-2 1-1.125 1-2.5 1c-1.556 0-2.5.567-2.5 1.5 0 .943-.951 1.5-2.559 1.5-1.451 0-2.292.433-1.941 1 .361.583-.656 1-2.441 1-1.682 0-3.059.45-3.059 1s-.9 1-2 1-2 .623-2 1.383c0 1.449-2.932 2.58-6.75 2.603-1.319.008-2.25.63-2.25 1.502 0 .963-1.412 1.714-4 2.128-2.413.386-4 1.184-4 2.012 0 .755-.9 1.372-2 1.372s-2 .43-2 .955c0 .525-1.575 1.25-3.5 1.611-1.937.363-3.5 1.256-3.5 2s-1.563 1.637-3.5 2c-2.005.376-3.5 1.25-3.5 2.045 0 .815-1.033 1.389-2.5 1.389-1.375 0-2.5.45-2.5 1s-.9 1-2 1-2 .603-2 1.34c0 .737-1.8 1.934-4 2.66-2.2.726-4 1.923-4 2.66 0 .737-.9 1.34-2 1.34s-2 .45-2 1-.675 1-1.5 1-1.5.675-1.5 1.5-.863 1.5-1.918 1.5c-2.981 0-5.082 1.078-5.082 2.607 0 .766-.914 1.393-2.031 1.393-1.118 0-2.291.675-2.607 1.5-.317.825-1.428 1.5-2.469 1.5s-1.893.626-1.893 1.392c0 .765-1.125 1.674-2.5 2.019-1.375.345-2.5 1.294-2.5 2.108 0 .815-.863 1.481-1.918 1.481-2.981 0-5.082 1.078-5.082 2.607 0 .766-.675 1.393-1.5 1.393-1.687 0-5.5 3.466-5.5 5 0 .55-.942 1-2.094 1-1.252 0-2.303.803-2.616 2-.288 1.1-1.271 2-2.186 2-.914 0-2.311.9-3.104 2-.793 1.1-2.017 2-2.721 2-.703 0-1.279.45-1.279 1s-.914 1-2.031 1c-1.118 0-2.33.788-2.694 1.75-.937 2.472-2.876 4.25-4.636 4.25-.827 0-1.79.9-2.139 2-.349 1.1-1.054 2-1.567 2-.513 0-.933.707-.933 1.571 0 1.796-2.335 4.429-3.929 4.429-.589 0-1.071.619-1.071 1.375s-1.391 1.653-3.092 1.993c-1.934.387-3.288 1.37-3.617 2.625-.288 1.104-1.179 2.007-1.979 2.007-1.716 0-3.659 1.801-4.587 4.25-.364.962-1.126 1.75-1.694 1.75-.567 0-1.031.645-1.031 1.433s-.899 1.718-1.998 2.066c-1.098.349-2.278 1.751-2.62 3.117-.43 1.71-1.519 2.661-3.503 3.058-1.583.317-2.879 1.204-2.879 1.972s-1.138 1.915-2.528 2.549c-1.835.836-2.178 1.375-1.25 1.963.935.594.809.815-.472.827-1.851.016-5.75 3.371-5.75 4.948 0 .513-.9 1.218-2 1.567s-2 1.232-2 1.962c0 1.879-5.115 7.122-7.77 7.965-1.227.389-2.23 1.352-2.23 2.14s-.45 1.433-1 1.433-1 .9-1 2-.441 2-.981 2c-.539 0-1.259 1.109-1.599 2.464-.341 1.355-1.474 2.736-2.519 3.068-1.046.331-1.901 1.002-1.901 1.49s-1.125 2.012-2.5 3.387-2.5 3.196-2.5 4.046c0 .85-.398 1.545-.883 1.545-.486 0-1.119.9-1.407 2-.287 1.1-1.272 2-2.188 2-2.428 0-4.457 2.417-5.198 6.192-.357 1.819-1.476 4.036-2.487 4.925-1.01.89-1.837 2.079-1.837 2.643 0 .564-.675 1.285-1.5 1.602-.825.316-1.5 1.39-1.5 2.386 0 .996-.9 2.459-2 3.252-1.1.793-2 2.017-2 2.721 0 .703-.394 1.279-.875 1.279s-1.147 1.359-1.479 3.021c-.467 2.335-1.269 3.154-3.534 3.607-2.366.473-3.052 1.238-3.566 3.979-.35 1.866-1.066 3.393-1.591 3.393-.525 0-.955.735-.955 1.633s-.828 2.36-1.84 3.25c-1.012.889-2.146 2.854-2.519 4.367-.374 1.513-1.121 2.75-1.66 2.75-.54 0-.981.9-.981 2s-.45 2-1 2-1 .675-1 1.5-.401 1.5-.892 1.5c-.49 0-1.174 1.125-1.519 2.5s-1.069 2.5-1.608 2.5c-.54 0-.981 1.125-.981 2.5s-.45 2.5-1 2.5-1 .851-1 1.892c0 1.183-.936 2.126-2.5 2.519-1.826.458-2.5 1.296-2.5 3.108 0 1.365-.45 2.481-1 2.481s-1 .852-1 1.893-.675 2.152-1.5 2.469c-.825.316-1.5 1.714-1.5 3.107 0 1.392-.45 2.531-1 2.531s-1 .9-1 2-.45 2-1 2-1 1.35-1 3-.4 3-.889 3c-.488 0-1.184 1.575-1.545 3.5s-1.086 3.5-1.611 3.5c-.525 0-.955.9-.955 2s-.45 2-1 2-1 .9-1 2-.45 2-1 2-1 1.125-1 2.5c0 1.556-.567 2.5-1.5 2.5-.833 0-1.5.889-1.5 2 0 1.1-.45 2-1 2s-1 .9-1 2-.45 2-1 2-1 1.093-1 2.429c0 1.335-.675 3.103-1.5 3.928-.825.825-1.5 3.107-1.5 5.072 0 1.964-.45 3.571-1 3.571s-1 .9-1 2-.392 2-.871 2-1.17 2.25-1.535 5c-.364 2.75-1.097 5-1.628 5-.531 0-.966.9-.966 2s-.45 2-1 2-1 1.35-1 3-.398 3-.885 3c-.486 0-1.194 2.475-1.572 5.5-.565 4.527-1.028 5.5-2.615 5.5-1.345 0-1.928.695-1.928 2.3 0 1.265-.562 2.906-1.25 3.647-1 1.077-1 1.205 0 .641.776-.438 1.25-.092 1.25.912 0 .89-.393 1.375-.873 1.078-.48-.296-1.178 2.152-1.55 5.441-.372 3.29-1.104 5.981-1.627 5.981-.522 0-.95 1.8-.95 4s-.45 4-1 4-1 1.575-1 3.5-.41 3.5-.91 3.5c-.501 0-1.229 3.825-1.619 8.5-.389 4.675-1.104 8.5-1.589 8.5-.485 0-.882 1.575-.882 3.5s-.45 3.5-1 3.5c-.556 0-1 2.667-1 6 0 3.3-.411 6-.912 6-.502 0-1.243 5.513-1.646 12.25-.459 7.649-1.029 11.499-1.518 10.25-.467-1.192-.812 1.938-.854 7.75-.063 8.785-.253 9.75-1.915 9.75C5.03 888 4 901.926 4 930.658 4 940.219 3.623 946 3 946c-.55 0-1 2.277-1 5.059 0 3.118.384 4.822 1 4.441.65-.401 1 4.603 1 14.281C4 1001.173 5.102 1018 7.157 1018c1.625 0 1.843.877 1.843 7.417 0 4.079.433 7.566.962 7.75.528.183 1.271 5.846 1.65 12.583.378 6.737 1.071 12.25 1.538 12.25.468 0 .85 2.25.85 5s.45 5 1 5 1 1.8 1 4 .403 4 .896 4 1.215 3.6 1.604 8 1.111 8 1.604 8c.493 0 .896 2.025.896 4.5s.45 4.5 1 4.5 1 1.125 1 2.5.414 2.5.92 2.5c.507 0 1.234 2.925 1.617 6.5s1.094 6.5 1.579 6.5c.486 0 .884 1.35.884 3 0 2.26.46 3 1.863 3 1.579 0 1.945 1.024 2.402 6.717.297 3.695 1.034 6.883 1.637 7.084.604.201 1.098 1.678 1.098 3.282 0 1.605.45 2.917 1 2.917s1 .9 1 2 .406 2 .902 2 1.215 2.7 1.598 6 1.102 6 1.598 6 .902.9.902 2 .45 2 1 2 1 .9 1 2 .408 2 .906 2c.499 0 1.216 2.25 1.594 5 .378 2.75 1.095 5 1.594 5 .498 0 .906 1.125.906 2.5s.45 2.5 1 2.5 1 .9 1 2c0 1.111.667 2 1.5 2s1.5.889 1.5 2c0 1.1.45 2 1 2s1 .96 1 2.133.842 2.863 1.871 3.755c1.029.892 2.193 3.533 2.588 5.867.394 2.335 1.127 4.245 1.629 4.245s.912.9.912 2 .45 2 1 2 1 1.077 1 2.393c0 1.316.675 2.652 1.5 2.969.877.336 1.5 1.835 1.5 3.607 0 1.667.45 3.031 1 3.031s1 .9 1 2 .45 2 1 2 1 .9 1 2 .45 2 1 2 1 1.076 1 2.392c0 1.765.721 2.583 2.75 3.123 1.512.402 2.188.939 1.5 1.192-.687.253-1.25.947-1.25 1.543s.279.805.619.464c1.182-1.182 3.144 1.926 3.849 6.094.389 2.306 1.118 4.192 1.62 4.192s.912.801.912 1.779c0 .979.874 2.409 1.942 3.179 1.069.77 2.233 3.12 2.588 5.221.355 2.102 1.056 3.821 1.558 3.821s.912 1.026.912 2.279c0 1.254.912 2.937 2.027 3.74 1.129.814 2.292 3.126 2.627 5.221.447 2.794 1.083 3.76 2.474 3.76 1.205 0 1.872.712 1.872 2 0 1.1.414 2 .921 2 .506 0 1.217 1.35 1.579 3 .362 1.65 1.073 3 1.579 3 .507 0 .921.9.921 2s.45 2 1 2 1 .9 1 2 .43 2 .955 2c.525 0 1.25 1.575 1.611 3.5s1.057 3.5 1.545 3.5c.489 0 .889 1.125.889 2.5s.45 2.5 1 2.5 1 .9 1 2 .43 2 .955 2c.525 0 1.25 1.575 1.611 3.5s1.057 3.5 1.545 3.5c.489 0 .889.9.889 2 0 1.306.667 2 1.921 2 1.32 0 2.126.937 2.579 3 .362 1.65 1.073 3 1.579 3 .507 0 .921.9.921 2s.45 2 1 2 1 .932 1 2.071c0 1.14.679 2.751 1.509 3.581.83.83 1.252 1.926.937 2.436-.315.509.131 1.196.991 1.526.859.33 1.563 1.677 1.563 2.993 0 1.316.41 2.393.912 2.393s1.203 1.719 1.558 3.821c.355 2.101 1.519 4.451 2.588 5.221 1.068.77 1.942 2.2 1.942 3.179 0 .978.45 1.779 1 1.779s1 .9 1 2c0 1.111.667 2 1.5 2s1.5.889 1.5 2c0 1.1.45 2 1 2s1 1.077 1 2.393c0 1.316.675 2.652 1.5 2.969.825.316 1.5 1.714 1.5 3.107 0 1.392.45 2.531 1 2.531s1 .9 1 2 .45 2 1 2 1 .862 1 1.917c0 1.054.446 2.066.991 2.25.546.183 1.098 1.624 1.228 3.202.13 1.578.809 3.088 1.509 3.357.7.268 1.272 1.565 1.272 2.881 0 1.316.45 2.393 1 2.393s1 .9 1 2 .394 2 .875 2 1.145 1.35 1.475 3c.43 2.148 1.175 3 2.625 3 1.358 0 2.025.658 2.025 2 0 1.1.41 2 .912 2s1.216 1.8 1.588 4c.372 2.2 1.086 4 1.588 4s.912 1.095.912 2.433c0 1.532.721 2.661 1.946 3.05 1.387.44 2.138 1.897 2.614 5.067.367 2.448 1.066 4.45 1.554 4.45.487 0 .886.852.886 1.893s.704 2.163 1.563 2.493c.86.33 1.284 1.053.941 1.607-.342.554-.166 1.007.392 1.007.557 0 1.309 1.575 1.67 3.5s1.057 3.5 1.545 3.5c.489 0 .889.9.889 2 0 1.306.667 2 1.921 2 1.32 0 2.126.937 2.579 3 .362 1.65 1.073 3 1.579 3 .507 0 .921.9.921 2s.45 2 1 2 1 .932 1 2.071c0 1.14.675 2.747 1.5 3.572.825.825 1.5 2.818 1.5 4.428 0 1.611.45 2.929 1 2.929s1 .675 1 1.5.45 1.5 1 1.5 1 .9 1 2 .392 2 .872 2 1.16 1.8 1.512 4c.352 2.2 1.084 4 1.628 4 .543 0 .988.9.988 2s.45 2 1 2 1 .675 1 1.5.675 1.5 1.5 1.5c.833 0 1.5.889 1.5 2 0 1.1.45 2 1 2s1 .675 1 1.5.45 1.5 1 1.5 1 .9 1 2 .43 2 .955 2c.525 0 1.25 1.575 1.611 3.5s1.057 3.5 1.545 3.5c.489 0 .889.675.889 1.5s.45 1.5 1 1.5 1 .9 1 2 .392 2 .872 2 1.143 1.692 1.474 3.76c.335 2.095 1.498 4.407 2.627 5.221 1.115.803 2.027 2.486 2.027 3.74 0 1.253.45 2.279 1 2.279s1 .9 1 2c0 1.111.667 2 1.5 2 .825 0 1.5.59 1.5 1.311 0 .722.87 2.246 1.933 3.387 1.064 1.142 2.239 3.701 2.612 5.689.373 1.987 1.078 3.613 1.566 3.613.489 0 .889.96.889 2.133s.842 2.863 1.871 3.755c1.029.892 2.193 3.533 2.588 5.867.394 2.335 1.127 4.245 1.629 4.245s.912.801.912 1.779c0 .979.9 2.428 2 3.221 1.1.793 2 2.411 2 3.596 0 4.406 1.283 8.404 2.696 8.404 2.274 0 4.1 2.394 4.841 6.348.375 1.999 1.083 3.387 1.573 3.084.489-.302.89.152.89 1.009 0 .857.41 1.559.912 1.559s1.216 1.8 1.588 4c.372 2.2 1.086 4 1.588 4s.912 1.095.912 2.433c0 1.532.721 2.661 1.946 3.05 1.387.44 2.138 1.897 2.614 5.067.367 2.448 1.066 4.45 1.554 4.45.487 0 .886.9.886 2s.45 2 1 2 1 .9 1 2 .482 2 1.071 2c1.594 0 3.929 2.633 3.929 4.429 0 .864.45 1.571 1 1.571s1 .9 1 2 .45 2 1 2 1 .8 1 1.777c0 .978.753 2.853 1.673 4.166.92 1.314 1.187 2.089.593 1.722-.725-.449-.7.149.078 1.826.636 1.371 1.493 2.497 1.906 2.501.413.004.75.908.75 2.008s.4 2 .889 2c.488 0 1.184 1.575 1.545 3.5s1.086 3.5 1.611 3.5c.525 0 .955.675.955 1.5s.45 1.5 1 1.5 1 .9 1 2 .45 2 1 2 1 .9 1 2c0 1.111.667 2 1.5 2 .825 0 1.5.675 1.5 1.5s.45 1.5 1 1.5 1 .932 1 2.071c0 1.14.675 2.747 1.5 3.572.825.825 1.5 2.593 1.5 3.928 0 1.336.45 2.429 1 2.429s1 .675 1 1.5.45 1.5 1 1.5 1 .9 1 2 .43 2 .955 2c.525 0 1.25 1.575 1.611 3.5s1.057 3.5 1.545 3.5c.489 0 .889.675.889 1.5s.45 1.5 1 1.5 1 .9 1 2 .45 2 1 2 1 .863 1 1.918c0 3.241 1.125 5.082 3.107 5.082 1.041 0 1.893.675 1.893 1.5s.399 1.5.886 1.5c.488 0 1.191 2.025 1.562 4.5s1.097 4.5 1.613 4.5c.517 0 .939.9.939 2s.45 2 1 2 1 .675 1 1.5.422 1.5.939 1.5c.516 0 1.242 2.025 1.613 4.5s1.074 4.5 1.562 4.5c.487 0 .886.87.886 1.933 0 1.063.9 2.218 2 2.567 1.1.349 2 1.081 2 1.626 0 .546-.528.666-1.173.267s-.42.35.5 1.664c.92 1.313 1.673 3.188 1.673 4.166 0 .977.45 1.777 1 1.777s1 .9 1 2c0 1.333.667 2 2 2 1.309 0 2 .667 2 1.929 0 1.06.675 2.603 1.5 3.428.825.825 1.5 2.207 1.5 3.072 0 .864.45 1.571 1 1.571s1 .9 1 2 .399 2 .886 2c.488 0 1.187 2.002 1.554 4.45.476 3.17 1.227 4.627 2.614 5.067 1.225.389 1.946 1.518 1.946 3.05 0 1.338.41 2.433.912 2.433s1.216 1.8 1.588 4c.372 2.2.978 4 1.347 4 .37 0 1.263.947 1.986 2.105.723 1.157.831 1.806.241 1.441-.591-.365-1.074-.196-1.074.376 0 .572 1.125 1.322 2.5 1.667 1.564.393 2.5 1.336 2.5 2.519 0 1.041.45 1.892 1 1.892s1 1.125 1 2.5.45 2.5 1 2.5 1 .852 1 1.893.675 2.152 1.5 2.469c.877.336 1.5 1.835 1.5 3.607 0 1.667.45 3.031 1 3.031s1 .9 1 2 .45 2 1 2 1 1.125 1 2.5.414 2.5.921 2.5c.506 0 1.237 1.463 1.625 3.25.388 1.788 1.211 3.581 1.83 3.985.797.521.761.739-.126.75-.687.008-1.25.465-1.25 1.015 0 .55.9 1 2 1 1.333 0 2 .667 2 2 0 1.1.45 2 1 2s1 .675 1 1.5.675 1.5 1.5 1.5c.833 0 1.5.889 1.5 2 0 1.1.45 2 1 2s1 .675 1 1.5.45 1.5 1 1.5 1 .868 1 1.929c0 1.06.675 2.603 1.5 3.428.825.825 1.5 2.159 1.5 2.965 0 .805.675 1.723 1.5 2.04.825.316 1.5 1.714 1.5 3.107 0 1.392.45 2.531 1 2.531s1 .603 1 1.339c0 .737 1.125 1.853 2.5 2.479 1.375.627 2.5 1.631 2.5 2.232 0 1.568 2.603 3.95 4.317 3.95.867 0 1.718 1.373 2.094 3.38.513 2.732 1.199 3.492 3.585 3.969 2.093.419 3.139 1.34 3.598 3.17.453 1.806 1.506 2.751 3.511 3.152 1.574.315 2.627.953 2.34 1.418-.287.465.395 1.419 1.516 2.119 1.122.7 2.039 1.84 2.039 2.533 0 .692.932 1.259 2.071 1.259 2.214 0 4.929 2.164 4.929 3.929 0 .589.87 1.071 1.933 1.071 1.063 0 2.218.9 2.567 2 .349 1.1 1.504 2 2.567 2 1.063 0 1.933.655 1.933 1.455 0 .87 1.405 1.718 3.5 2.111 2.005.376 3.5 1.25 3.5 2.045 0 .764.337 1.296.75 1.182 1.751-.484 9.25 1.315 9.25 2.219 0 .543 1.35.988 3 .988 1.954 0 3 .506 3 1.45 0 1.031 1.737 1.647 6 2.13 3.696.418 6 1.148 6 1.902 0 1.192 10.087 2.518 19.151 2.518 2.755 0 3.849.426 3.849 1.5 0 1.281 2.778 1.5 19 1.5 15.489 0 19-.255 19-1.38 0-1.052 2.736-1.551 11.5-2.099 8.264-.516 11.5-1.076 11.5-1.99 0-.813 2.167-1.518 6-1.951 4.263-.483 6-1.099 6-2.13 0-.88.982-1.45 2.5-1.45 1.375 0 2.5-.4 2.5-.889 0-.488 1.575-1.184 3.5-1.545 1.934-.363 3.5-1.257 3.5-1.998 0-1.168 7.892-3.278 10.25-2.739.412.094.679-.167.591-.579-.376-1.777 1.524-4.25 3.266-4.25 1.041 0 1.893-.45 1.893-1s.675-1 1.5-1 1.5-.482 1.5-1.071c0-1.594 2.633-3.929 4.429-3.929.864 0 1.571-.626 1.571-1.392 0-.765 1.125-1.674 2.5-2.019 1.375-.345 2.5-1.245 2.5-2 0-.755 1.125-1.655 2.5-2s2.5-1.128 2.5-1.741c0-1.469 3.94-4.848 5.653-4.848.741 0 1.347-.927 1.347-2.059 0-1.132.45-1.781 1-1.441.55.34 1-.309 1-1.441 0-1.132.441-2.059.981-2.059.539 0 1.251-1.076 1.581-2.391.414-1.649 1.535-2.578 3.611-2.994 1.86-.372 3.211-1.368 3.536-2.608.288-1.104.922-2.007 1.408-2.007.485 0 .883-1.095.883-2.433 0-1.554.722-2.661 2-3.067 1.1-.349 2-1.472 2-2.496s.675-2.536 1.5-3.361c.825-.825 1.5-1.982 1.5-2.572 0-.589.45-1.071 1-1.071s1-.9 1-2 .45-2 1-2 1-.868 1-1.929c0-1.06.675-2.603 1.5-3.428.825-.825 1.5-2.207 1.5-3.072 0-.88.84-1.571 1.912-1.571 1.452 0 2.075-.964 2.588-4 .372-2.2 1.086-4 1.588-4s.912-.675.912-1.5.45-1.5 1-1.5 1-.675 1-1.5.422-1.5.939-1.5c.516 0 1.242-2.025 1.613-4.5s1.074-4.5 1.562-4.5c.487 0 .886-.9.886-2s.4-2 .889-2c.488 0 1.184-1.575 1.545-3.5s1.086-3.5 1.611-3.5c.525 0 .955-.9.955-2s.45-2 1-2 1-.675 1-1.5.45-1.5 1-1.5 1-1.125 1-2.5c0-1.556.567-2.5 1.5-2.5.833 0 1.5-.889 1.5-2 0-1.1.45-2 1-2s1-.675 1-1.5.43-1.5.955-1.5c.525 0 1.25-1.575 1.611-3.5s1.057-3.5 1.545-3.5c.489 0 .889-.9.889-2s.45-2 1-2 1-1.077 1-2.393c0-1.316.675-2.652 1.5-2.969.825-.316 1.5-1.489 1.5-2.607 0-1.117.45-2.031 1-2.031s1-1.125 1-2.5.45-2.5 1-2.5 1-.852 1-1.893.704-2.163 1.563-2.493c.86-.33 1.309-1.012.997-1.517-.983-1.59.576-4.097 2.547-4.097 1.226 0 1.893-.704 1.893-2 0-1.1.4-2 .889-2 .488 0 1.193-1.626 1.566-3.613.373-1.988 1.548-4.547 2.612-5.689 1.063-1.141 1.933-2.665 1.933-3.387 0-.721.392-1.311.871-1.311s1.17-2.25 1.535-5c.364-2.75 1.097-5 1.628-5 .531 0 .966-.801.966-1.779 0-.979.874-2.409 1.942-3.179 1.069-.77 2.233-3.12 2.588-5.221.355-2.102 1.056-3.821 1.558-3.821s.912-1.125.912-2.5c0-1.784.541-2.5 1.889-2.5 1.366 0 2.07-.967 2.545-3.5.361-1.925 1.086-3.5 1.611-3.5.525 0 .955-.675.955-1.5s.45-1.5 1-1.5 1-.9 1-2 .4-2 .889-2c.488 0 1.184-1.575 1.545-3.5s1.086-3.5 1.611-3.5c.525 0 .955-.96.955-2.133s.832-2.86 1.849-3.75c1.017-.889 2.162-3.304 2.545-5.367.383-2.062 1.126-3.75 1.651-3.75.525 0 .955-.9.955-2s.45-2 1-2 1-.886 1-1.969c0-1.339.48-1.784 1.5-1.393 1.041.4 1.5-.069 1.5-1.531 0-1.159.45-2.107 1-2.107s1-.675 1-1.5.45-1.5 1-1.5 1-.9 1-2 .4-2 .889-2c.488 0 1.184-1.575 1.545-3.5s.99-3.5 1.399-3.5c.408 0 .817-1.006.91-2.235.092-1.23.638-2.392 1.213-2.584.574-.191 1.044-1.21 1.044-2.264 0-1.055.41-1.917.912-1.917s1.203-1.719 1.558-3.821c.355-2.101 1.519-4.451 2.588-5.221 1.068-.77 1.942-2.2 1.942-3.179 0-.978.45-1.779 1-1.779s1-.9 1-2c0-1.111.667-2 1.5-2 .933 0 1.5-.944 1.5-2.5 0-1.375.45-2.5 1-2.5s1-.852 1-1.893.675-2.152 1.5-2.469c.825-.316 1.5-1.714 1.5-3.107 0-1.392.45-2.531 1-2.531s1-.9 1-2 .45-2 1-2 1-.9 1-2 .45-2 1-2 1-1.139 1-2.531c0-1.393.675-2.791 1.5-3.107.825-.317 1.5-1.328 1.5-2.248 0-.92.9-2.321 2-3.114 1.1-.793 2-2.411 2-3.596 0-4.406 1.283-8.404 2.696-8.404 2.275 0 4.1-2.395 4.843-6.356.376-2.004 1.084-3.644 1.572-3.644.489 0 .889-1.125.889-2.5s.4-2.5.889-2.5c.488 0 1.184-1.575 1.545-3.5s1.086-3.5 1.611-3.5c.525 0 .955-.9.955-2s.45-2 1-2 1-.9 1-2 .43-2 .955-2c.525 0 1.25-1.575 1.611-3.5s1.057-3.5 1.545-3.5c.489 0 .889-.675.889-1.5s.45-1.5 1-1.5 1-1.125 1-2.5.482-2.5 1.071-2.5c1.765 0 3.929-2.715 3.929-4.929 0-1.139.45-2.071 1-2.071s1-.9 1-2 .414-2 .921-2c.506 0 1.217-1.35 1.579-3 .362-1.65 1.073-3 1.579-3 .507 0 .921-.9.921-2s.45-2 1-2 1-.9 1-2 .45-2 1-2 1-1.139 1-2.531c0-1.393.675-2.791 1.5-3.107.825-.317 1.5-1.428 1.5-2.469s.45-1.893 1-1.893 1-1.125 1-2.5.45-2.5 1-2.5 1-.9 1-2c0-1.111.667-2 1.5-2 .825 0 1.5-.801 1.5-1.779 0-.979.897-2.426 1.994-3.217 1.296-.933 2.217-3.114 2.629-6.221.349-2.63 1.027-4.783 1.506-4.783.479 0 .871-.9.871-2s.45-2 1-2 1-.707 1-1.571c0-.865.675-2.247 1.5-3.072.825-.825 1.5-2.368 1.5-3.428 0-1.061.45-1.929 1-1.929s1-.9 1-2 .45-2 1-2 1-1.125 1-2.5.419-2.5.93-2.5c.512 0 1.075-1.013 1.25-2.25.206-1.446 1.124-2.364 2.57-2.57 1.629-.231 2.25-.99 2.25-2.75 0-1.336.41-2.43.912-2.43s1.216-1.8 1.588-4c.372-2.2 1.086-4 1.588-4s.912-.801.912-1.779c0-.979.874-2.409 1.942-3.179 1.069-.77 2.233-3.12 2.588-5.221.355-2.102 1.056-3.821 1.558-3.821s.912-1.125.912-2.5.45-2.5 1-2.5 1-.482 1-1.071c0-.59.675-1.747 1.5-2.572s1.5-2.593 1.5-3.928c0-1.336.45-2.429 1-2.429s1-.9 1-2c0-1.318.667-2 1.955-2 1.442 0 2.127-.918 2.611-3.5.361-1.925 1.057-3.5 1.545-3.5.489 0 .889-.9.889-2s.45-2 1-2 1-1.125 1-2.5.43-2.5.955-2.5c.525 0 1.25-1.575 1.611-3.5s1.057-3.5 1.545-3.5c.489 0 .889-.9.889-2s.45-2 1-2 1-.675 1-1.5.43-1.5.955-1.5c.525 0 1.25-1.575 1.611-3.5s1.057-3.5 1.545-3.5c.489 0 .889-1.125.889-2.5s.45-2.5 1-2.5 1-.851 1-1.892c0-1.183.936-2.126 2.5-2.519 1.826-.458 2.5-1.296 2.5-3.108 0-1.365.45-2.481 1-2.481s1-.9 1-2 .41-2 .912-2 1.203-1.719 1.558-3.821c.355-2.101 1.519-4.451 2.588-5.221 1.068-.77 1.942-2.2 1.942-3.179 0-.978.422-1.779.939-1.779.516 0 1.242-2.025 1.613-4.5s1.074-4.5 1.562-4.5c.487 0 .886-.87.886-1.933 0-1.063.9-2.218 2-2.567 1.278-.406 2-1.513 2-3.067 0-1.496.578-2.433 1.5-2.433.833 0 1.5-.889 1.5-2 0-1.1.45-2 1-2s1-1.302 1-2.893c0-1.732.643-3.14 1.604-3.508.937-.36 1.36-1.252 1.017-2.145-.333-.866.056-1.777.896-2.099.816-.313 1.483-1.646 1.483-2.962 0-1.316.41-2.393.912-2.393s1.216-1.8 1.588-4c.372-2.2 1.086-4 1.588-4s.912-.702.912-1.559.45-1.281 1-.941c.55.34 1-.309 1-1.441 0-1.132.41-2.059.912-2.059s1.231-1.886 1.62-4.192c.752-4.451 2.403-6.808 4.769-6.808.911 0 1.679-1.476 2.083-4 .352-2.2 1.084-4 1.628-4 .543 0 .988-.9.988-2s.45-2 1-2 1-.675 1-1.5.4-1.5.889-1.5c.488 0 1.184-1.575 1.545-3.5s1.086-3.5 1.611-3.5c.525 0 .955-.9.955-2s.45-2 1-2 1-.675 1-1.5.422-1.5.939-1.5c.516 0 1.242-2.025 1.613-4.5s1.074-4.5 1.562-4.5c.487 0 .886-.482.886-1.071 0-1.385 2.544-3.929 3.929-3.929.589 0 1.071-1.125 1.071-2.5s.45-2.5 1-2.5 1-1.125 1-2.5.45-2.5 1-2.5 1-1.077 1-2.393c0-1.316.675-2.652 1.5-2.969.825-.316 1.5-1.489 1.5-2.607 0-1.117.45-2.031 1-2.031s1-1.125 1-2.5.45-2.5 1-2.5 1-.9 1-2 .422-2 .939-2c.516 0 1.242-2.025 1.613-4.5s1.074-4.5 1.562-4.5c.487 0 .886-.9.886-2s.45-2 1-2 1-.675 1-1.5.45-1.5 1-1.5 1-.9 1-2c0-1.111.667-2 1.5-2 1.048 0 1.5-1.056 1.5-3.5 0-1.925.45-3.5 1-3.5s1-.638 1-1.417.458-1.569 1.018-1.756c.56-.186 1.307-2.811 1.659-5.833.403-3.456 1.323-6.094 2.482-7.111 1.153-1.014 1.841-2.974 1.841-5.25 0-1.998.435-3.633.966-3.633.531 0 1.264-2.25 1.628-5 .365-2.75 1.056-5 1.535-5 .479 0 .871-1.575.871-3.5s.45-3.5 1-3.5 1-1.125 1-2.5.45-2.5 1-2.5 1.005-1.237 1.011-2.75c.025-6.352 1.212-10.25 3.12-10.25 1.41 0 1.869-.737 1.869-3 0-1.65.404-3 .899-3 .494 0 1.214-3.15 1.601-7s1.107-7 1.601-7c.495 0 .899-2.025.899-4.5s.45-4.5 1-4.5 1-1.763 1-3.917.428-4.066.95-4.25c.523-.183 1.262-4.495 1.644-9.583.381-5.088 1.078-9.25 1.549-9.25.472 0 .857-2.7.857-6 0-3.333.444-6 1-6 .55 0 1-2.437 1-5.417 0-2.979.434-5.566.965-5.75.536-.185 1.273-8.232 1.655-18.083.379-9.762 1.07-17.75 1.535-17.75.465 0 .845-9.042.845-20.094 0-19.252.084-20.115 2-20.616 1.321-.346 2-1.364 2-3s-.679-2.655-2-3c-1.915-.501-2-1.364-2-20.407 0-10.935-.383-19.883-.85-19.883-.468 0-1.168-7.987-1.556-17.75-.388-9.763-1.131-17.9-1.65-18.083-.519-.184-.944-3.446-.944-7.25 0-3.945-.43-6.917-1-6.917-.55 0-1-2.223-1-4.941s-.381-5.177-.848-5.465c-.466-.288-1.144-4.702-1.506-9.809-.362-5.107-1.106-9.435-1.652-9.618-.547-.184-.994-2.321-.994-4.75 0-2.43-.45-4.417-1-4.417s-1-1.8-1-4-.412-4-.915-4c-.503 0-1.231-3.375-1.617-7.5-.387-4.125-1.1-7.5-1.585-7.5-.486 0-.883-1.125-.883-2.5 0-1.773-.542-2.5-1.864-2.5-1.889 0-3.136-4.828-3.136-12.14 0-1.573-.45-2.86-1-2.86s-1-1.125-1-2.5-.45-2.5-1-2.5-1-1.35-1-3-.392-3-.871-3-1.17-2.25-1.535-5c-.364-2.75-1.097-5-1.628-5-.531 0-.966-1.575-.966-3.5s-.45-3.5-1-3.5-1-.675-1-1.5-.392-1.5-.871-1.5-1.166-2.609-1.527-5.799c-.464-4.108-1.231-6.213-2.629-7.22-1.085-.783-1.973-2.448-1.973-3.702 0-1.359-.605-2.279-1.5-2.279-.825 0-1.5-.862-1.5-1.917 0-1.054-.407-2.066-.905-2.25-.497-.183-1.06-1.458-1.25-2.833-.19-1.375-.593-2.725-.897-3-1.07-.969-3.948-7.822-3.948-9.401 0-.88-.45-1.599-1-1.599s-1-.675-1-1.5-.45-1.5-1-1.5-1-.9-1-2-.392-2-.871-2-1.17-2.25-1.535-5c-.364-2.75-1.097-5-1.628-5-.531 0-.966-1.125-.966-2.5s-.45-2.5-1-2.5-1-.891-1-1.981c0-1.279-.886-2.203-2.5-2.608-1.795-.451-2.5-1.302-2.5-3.019 0-1.316-.45-2.392-1-2.392s-1-.852-1-1.893-.675-2.152-1.5-2.469c-.825-.316-1.5-1.714-1.5-3.107 0-1.392-.45-2.531-1-2.531s-1-.87-1-1.933c0-1.063-.9-2.218-2-2.567-1.256-.399-2-1.513-2-2.996 0-1.299-.675-3.036-1.5-3.861-.825-.825-1.5-2.402-1.5-3.504 0-1.102-.846-2.273-1.881-2.601-1.06-.337-2.14-1.894-2.475-3.568-.424-2.12-1.173-2.97-2.619-2.97-1.358 0-2.025-.658-2.025-2 0-1.1-.45-2-1-2s-1-.689-1-1.531c0-.843-.675-1.791-1.5-2.107-.825-.317-1.5-1.623-1.5-2.902 0-1.433-.754-2.564-1.965-2.949-1.217-.386-2.199-1.868-2.578-3.888-.337-1.796-1.702-4.084-3.035-5.084-1.332-1.001-2.422-2.431-2.422-3.179 0-.748-.45-1.36-1-1.36s-1-1.341-1-2.981c0-2.346-.533-3.115-2.5-3.608-1.375-.345-2.5-1.155-2.5-1.799 0-.644-.9-1.819-2-2.612-1.1-.793-2-2.194-2-3.114 0-.92-.675-1.931-1.5-2.248-.825-.316-1.5-1.054-1.5-1.64 0-.586-1.575-2.64-3.5-4.565-1.925-1.925-3.5-4.175-3.5-5 0-1.688-6.372-8.433-7.967-8.433-.568 0-1.033-.645-1.033-1.433s-.9-1.718-2-2.067c-1.1-.349-2-1.034-2-1.522s-1.125-2.012-2.5-3.387-2.5-2.922-2.5-3.439c0-.516-.675-1.197-1.5-1.514-.825-.316-1.5-1.264-1.5-2.107 0-.842-.381-1.531-.847-1.531-1.303 0-4.715-3.292-5.441-5.25-.357-.962-1.563-1.75-2.681-1.75-1.117 0-2.031-.627-2.031-1.393s-.675-1.652-1.5-1.969c-.825-.316-1.5-1.071-1.5-1.678 0-1.655-2.633-3.96-4.522-3.96-.916 0-1.897-.885-2.18-1.967-.282-1.082-1.365-2.237-2.406-2.567-1.041-.331-1.892-1.245-1.892-2.033 0-.788-.441-1.433-.981-1.433-.539 0-1.264-1.129-1.611-2.509-.412-1.643-1.539-2.71-3.269-3.093-5.273-1.167-6.139-1.554-6.139-2.745 0-.666-.9-1.86-2-2.653-1.1-.793-2-2.242-2-3.221 0-.978-.494-1.779-1.099-1.779-.604 0-2.36-1.35-3.901-3s-3.297-3-3.901-3c-.605 0-1.099-.645-1.099-1.433s-.978-1.743-2.173-2.122c-1.195-.379-3.08-1.535-4.189-2.567-1.108-1.033-2.597-1.878-3.308-1.878-.71 0-1.562-1.076-1.892-2.391-.408-1.627-1.533-2.578-3.519-2.975-1.623-.325-2.919-1.231-2.919-2.042 0-.801-.992-1.772-2.203-2.157-2.575-.817-4.797-2.838-4.797-4.364 0-.589-.863-1.071-1.918-1.071-2.912 0-5.082-1.067-5.082-2.499 0-1.128-4.387-3.053-6.15-2.698-.357.071-.929-.98-1.269-2.336-.409-1.631-1.322-2.467-2.694-2.467a2.662 2.662 0 0 1-2.597-2c-.315-1.205-1.371-2.005-2.657-2.014-3.292-.021-6.633-1.116-6.633-2.174 0-1.29-2.6-3.812-3.929-3.812-.589 0-1.071-.603-1.071-1.34 0-.798-2.225-1.874-5.5-2.66s-5.5-1.862-5.5-2.66c0-.737-.932-1.34-2.071-1.34-1.14 0-2.751-.679-3.581-1.509-.83-.83-1.872-1.285-2.315-1.011-.443.273-1.051-.443-1.352-1.592-.301-1.149-.97-1.827-1.488-1.507-.518.32-2.146-.535-3.619-1.9-1.592-1.475-3.872-2.481-5.626-2.481-1.621 0-2.948-.45-2.948-1s-.948-1-2.107-1c-1.393 0-1.925-.473-1.571-1.397.39-1.015-.674-1.579-3.893-2.061-2.802-.421-4.429-1.176-4.429-2.058 0-.801-1.489-1.673-3.5-2.05-2.005-.376-3.5-1.25-3.5-2.045 0-.921-1.18-1.389-3.5-1.389-1.925 0-3.5-.45-3.5-1s-.675-1-1.5-1-1.5-.45-1.5-1-1.35-1-3-1c-2 0-3-.5-3-1.5 0-.825-.675-1.5-1.5-1.5s-1.5-.45-1.5-1-1.125-1-2.5-1c-1.462 0-2.5-.574-2.5-1.384 0-.964-1.968-1.594-6.5-2.079-4.384-.47-6.5-1.128-6.5-2.023 0-.833-1.858-1.582-5-2.014-2.75-.378-5-1.095-5-1.594 0-.498-1.575-.906-3.5-.906-2.391 0-3.5-.459-3.5-1.45 0-1.031-1.737-1.647-6-2.13-3.963-.448-6-1.127-6-2 0-.872-2.037-1.551-6-2-4.085-.462-6-1.116-6-2.049 0-.921-1.248-1.371-3.8-1.371-2.09 0-4.24-.44-4.777-.977-.537-.537-4.902-1.279-9.7-1.648-5.789-.444-8.723-1.077-8.723-1.88 0-1.244-8.349-2.495-16.647-2.495-3.203 0-4.353-.396-4.353-1.5 0-1.167-1.333-1.5-6-1.5-3.333 0-6-.444-6-1 0-.583-3.333-1-8-1-6.046 0-8-.329-8-1.349 0-2.357-56.939-3.374-105.25-1.88M510 881.5c0 1.048-1.056 1.5-3.5 1.5-1.925 0-3.5.45-3.5 1s-1.125 1-2.5 1c-1.556 0-2.5.567-2.5 1.5 0 .825-.863 1.5-1.918 1.5-2.907 0-5.082 1.066-5.082 2.49 0 1.352-3.024 2.474-6.731 2.496-1.513.01-2.424.784-2.831 2.405-.408 1.627-1.533 2.578-3.519 2.975-1.725.345-2.919 1.221-2.919 2.14 0 .856-.675 1.816-1.5 2.132-.825.317-1.5 1.096-1.5 1.732 0 .635-1.125 2-2.5 3.033-1.375 1.032-2.5 2.459-2.5 3.17 0 .711-.9 1.578-2 1.927s-2 1.279-2 2.067c0 .788-.675 1.433-1.5 1.433-.833 0-1.5.889-1.5 2 0 1.1-.45 2-1 2s-1 .675-1 1.5-.45 1.5-1 1.5-1 .675-1 1.5-.422 1.5-.939 1.5c-.516 0-1.242 2.025-1.613 4.5s-1.074 4.5-1.562 4.5c-.487 0-.886 1.575-.886 3.5s-.45 3.5-1 3.5-1 1.538-1 3.417c0 1.879-.499 3.583-1.109 3.786-1.589.53-1.625 41.052-.037 41.582.63.21 1.146 2.144 1.146 4.298 0 2.155.45 3.917 1 3.917s1 1.35 1 3 .41 3 .912 3 1.216 1.8 1.588 4c.372 2.2 1.086 4 1.588 4s.912 1.125.912 2.5.45 2.5 1 2.5 1 .87 1 1.933c0 1.113.934 2.229 2.203 2.632 2.575.817 4.797 2.838 4.797 4.364 0 .589.45 1.071 1 1.071s1 .914 1 2.031c0 1.118.675 2.291 1.5 2.607.825.317 1.5 1.038 1.5 1.602 0 1.399 3.991 4.76 5.653 4.76.741 0 1.347.645 1.347 1.433s.9 1.718 2 2.067c1.238.393 2 1.513 2 2.94 0 1.915.675 2.412 4 2.944 2.588.414 4 1.165 4 2.128 0 .818.337 1.522.75 1.565 2.965.302 4.764.966 5.065 1.869.193.579 1.439 1.054 2.768 1.054 1.411 0 2.417.586 2.417 1.407 0 1.06 2.34 1.582 9.5 2.119 7.07.53 9.5 1.065 9.5 2.093 0 1.078 2.086 1.381 9.5 1.381 7.38 0 9.5-.306 9.5-1.371 0-.989 2.23-1.565 8-2.069 5.949-.519 8-1.064 8-2.129 0-.86.998-1.431 2.5-1.431 1.375 0 2.5-.4 2.5-.889 0-.488 1.575-1.184 3.5-1.545 1.937-.363 3.5-1.256 3.5-2s1.563-1.637 3.5-2c2.871-.539 3.5-1.098 3.5-3.111 0-1.825.537-2.455 2.094-2.455 1.213 0 2.301-.796 2.588-1.893.287-1.097 1.708-2.135 3.38-2.469 1.994-.399 3.078-1.347 3.511-3.072.344-1.372 1.481-2.766 2.526-3.098 1.046-.331 1.901-1.472 1.901-2.535 0-1.063.401-1.933.892-1.933.49 0 1.166-1.095 1.502-2.433.336-1.339 1.51-2.719 2.608-3.068 1.099-.348 1.998-1.503 1.998-2.566s.675-1.933 1.5-1.933c.933 0 1.5-.944 1.5-2.5 0-1.375.45-2.5 1-2.5s1-.9 1-2 .45-2 1-2 1-.9 1-2 .423-2 .939-2c.517 0 1.25-3.15 1.63-7 .379-3.85 1.081-7 1.56-7 .479 0 .871-3.6.871-8 0-4.667.417-8 1-8 .55 0 1-2.025 1-4.5s-.45-4.5-1-4.5c-.588 0-1-3.5-1-8.5 0-4.675-.385-8.5-.855-8.5-.471 0-1.139-3.035-1.486-6.745-.346-3.71-1.086-6.897-1.644-7.083-.558-.186-1.015-.976-1.015-1.755 0-.779-.45-1.417-1-1.417s-1-.9-1-2-.42-2-.934-2c-.513 0-1.076-1.237-1.25-2.75-.178-1.547-.863-2.641-1.566-2.5-.687.137-1.25-.425-1.25-1.25s-.45-1.5-1-1.5-1-.9-1-2-.45-2-1-2-1-.689-1-1.531c0-.843-.675-1.791-1.5-2.107-.825-.317-1.5-1.173-1.5-1.902 0-.729-.899-1.611-1.998-1.959-1.098-.349-2.268-1.713-2.599-3.032-.331-1.318-1.457-2.669-2.502-3.001-1.046-.331-1.901-1.199-1.901-1.928 0-1.469-2.143-2.54-5.082-2.54-1.055 0-1.918-.482-1.918-1.071 0-1.822-2.739-3.927-5.942-4.567-1.682-.337-3.058-1.21-3.058-1.942 0-.731-1.575-1.625-3.5-1.986-2.005-.376-3.5-1.25-3.5-2.045 0-.921-1.18-1.389-3.5-1.389-1.925 0-3.5-.45-3.5-1s-1.575-1-3.5-1c-2.444 0-3.5-.452-3.5-1.5 0-1.273-2.5-1.5-16.5-1.5s-16.5.227-16.5 1.5" fill-rule="evenodd"/>
</svg>